<svg width="24" height="24" viewBox="0 0 24 24" fill="none" xmlns="http://www.w3.org/2000/svg">
<path d="M11.7717 3.74346C14.1132 1.39988 17.9121 1.39988 20.2553 3.74302C22.5384 6.02609 22.5969 9.6913 20.4309 12.0452L20.2428 12.2426L11.4427 21.0408L11.4062 21.071C9.94492 22.3878 7.69092 22.3431 6.28355 20.9357C4.96453 19.6167 4.84241 17.554 5.9172 16.0973C5.94054 16.0519 5.96879 16.0082 6.002 15.967L6.05556 15.9074L6.14247 15.8197L6.28355 15.6718L6.28647 15.6747L13.7222 8.22035C13.9881 7.95373 14.4047 7.92897 14.6986 8.14643L14.7829 8.21894C15.0495 8.48485 15.0742 8.90148 14.8568 9.19538L14.7843 9.2796L7.18966 16.8927C6.47202 17.7683 6.5219 19.0626 7.3393 19.88C8.16836 20.709 9.48801 20.7485 10.3638 19.9984L19.1965 11.1679C20.952 9.41028 20.952 6.56104 19.1946 4.80368C17.4922 3.10124 14.765 3.04804 12.9986 4.64408L12.8307 4.80368L12.8181 4.81799L3.28179 14.3543C2.9889 14.6472 2.51403 14.6472 2.22113 14.3543C1.95487 14.0881 1.93066 13.6714 2.14852 13.3778L2.22113 13.2937L11.77 3.74302L11.7717 3.74346Z" fill="#8A8A8A"/>
</svg>
