<svg width="16" height="17" viewBox="0 0 16 17" fill="none" xmlns="http://www.w3.org/2000/svg">
<path d="M11.7526 9.70257C12.552 9.70257 13.2 10.3506 13.2 11.15V11.7016H13.1958C13.1686 12.3251 12.9977 13.1071 12.2975 13.746C11.5327 14.4439 10.2125 14.9001 8.00005 14.9001C5.78762 14.9001 4.46743 14.4439 3.70261 13.746C3.00242 13.1071 2.8315 12.3251 2.80431 11.7016H2.80005V11.15C2.80005 10.3506 3.44809 9.70257 4.24749 9.70257H11.7526ZM5.20005 2.9001C4.53731 2.9001 4.00005 3.43736 4.00005 4.1001V7.3001C4.00005 7.96284 4.53731 8.5001 5.20005 8.5001H10.8C11.4628 8.5001 12 7.96284 12 7.3001V4.1001C12 3.43736 11.4628 2.9001 10.8 2.9001H8.40005C8.40005 2.9001 8.40005 2.74697 8.40005 2.5001C8.40005 2.25322 8.22096 2.1001 8.00005 2.1001C7.77914 2.1001 7.60005 2.28447 7.60005 2.5001C7.60005 2.71572 7.60005 2.9001 7.60005 2.9001H5.20005ZM5.60005 5.7001C5.60005 5.25827 5.95822 4.9001 6.40005 4.9001C6.84188 4.9001 7.20005 5.25827 7.20005 5.7001C7.20005 6.14193 6.84188 6.5001 6.40005 6.5001C5.95822 6.5001 5.60005 6.14193 5.60005 5.7001ZM8.80005 5.7001C8.80005 5.25827 9.15822 4.9001 9.60005 4.9001C10.0419 4.9001 10.4 5.25827 10.4 5.7001C10.4 6.14193 10.0419 6.5001 9.60005 6.5001C9.15822 6.5001 8.80005 6.14193 8.80005 5.7001Z" fill="white"/>
</svg>
