<svg width="12" height="12" viewBox="0 0 12 12" fill="none" xmlns="http://www.w3.org/2000/svg">
<path d="M2.00002 0.399902C1.11637 0.399902 0.400024 1.11625 0.400024 1.9999V9.9999C0.400024 10.8836 1.11637 11.5999 2.00002 11.5999C2.88368 11.5999 3.60002 10.8836 3.60002 9.9999V1.9999C3.60002 1.11625 2.88368 0.399902 2.00002 0.399902ZM6.00002 2.7999C5.11637 2.7999 4.40002 3.51625 4.40002 4.3999V9.9999C4.40002 10.8836 5.11637 11.5999 6.00002 11.5999C6.88368 11.5999 7.60002 10.8836 7.60002 9.9999V4.3999C7.60002 3.51625 6.88368 2.7999 6.00002 2.7999ZM10 5.1999C9.11637 5.1999 8.40002 5.91625 8.40002 6.7999V9.9999C8.40002 10.8836 9.11637 11.5999 10 11.5999C10.8837 11.5999 11.6 10.8836 11.6 9.9999V6.7999C11.6 5.91625 10.8837 5.1999 10 5.1999Z" fill="#0078D4"/>
</svg>
