<svg width="16" height="16" viewBox="0 0 16 16" fill="none" xmlns="http://www.w3.org/2000/svg">
<path d="M12.8908 2.6818C13.6526 2.47865 14.4 3.05284 14.4 3.84128V12.0901C14.4 12.9091 13.5975 13.4875 12.8205 13.2285L9.01667 11.9605C8.63457 12.921 7.69687 13.6 6.59998 13.6C5.16404 13.6 3.99998 12.4359 3.99998 11V10.2883L2.4205 9.7618C1.93049 9.59847 1.59998 9.1399 1.59998 8.62338V6.61461C1.59998 6.07095 1.96548 5.59521 2.49078 5.45513L12.8908 2.6818ZM4.79998 10.555V11C4.79998 11.9941 5.60586 12.8 6.59998 12.8C7.3429 12.8 7.98123 12.3496 8.25596 11.707L4.79998 10.555Z" fill="white"/>
</svg>
