<svg width="16" height="16" viewBox="0 0 16 16" fill="none" xmlns="http://www.w3.org/2000/svg">
<path d="M8.79998 8.0001C9.68363 8.0001 10.4 8.71644 10.4 9.6001V10.8001C10.4 12.4436 8.72954 13.6001 5.99998 13.6001C3.27041 13.6001 1.59998 12.4436 1.59998 10.8001V9.6001C1.59998 8.71644 2.31632 8.0001 3.19998 8.0001H8.79998ZM12.8 8.0001C13.6836 8.0001 14.4 8.71644 14.4 9.6001V10.0001C14.4 11.671 13.1454 12.8001 10.8 12.8001C10.6869 12.8001 10.5764 12.7975 10.4685 12.7923C10.9 12.2901 11.1551 11.6834 11.1946 10.991L11.2 10.8001V9.6001C11.2 9.04658 11.0126 8.53683 10.6978 8.13081L10.5882 7.99939L12.8 8.0001ZM5.99998 1.6001C7.54637 1.6001 8.79998 2.8537 8.79998 4.4001C8.79998 5.9465 7.54637 7.2001 5.99998 7.2001C4.45358 7.2001 3.19998 5.9465 3.19998 4.4001C3.19998 2.8537 4.45358 1.6001 5.99998 1.6001ZM11.6 3.2001C12.7045 3.2001 13.6 4.09553 13.6 5.2001C13.6 6.30467 12.7045 7.2001 11.6 7.2001C10.4954 7.2001 9.59998 6.30467 9.59998 5.2001C9.59998 4.09553 10.4954 3.2001 11.6 3.2001Z" fill="white"/>
</svg>
