<svg width="16" height="16" viewBox="0 0 16 16" fill="none" xmlns="http://www.w3.org/2000/svg">
<path d="M2.39998 8.0001C2.39998 4.9073 4.90718 2.4001 7.99998 2.4001C11.0928 2.4001 13.6 4.9073 13.6 8.0001V8.8001H10.8C10.5791 8.8001 10.4 8.97918 10.4 9.2001V14.0001C10.4 14.221 10.5791 14.4001 10.8 14.4001H12.8C13.6836 14.4001 14.4 13.6838 14.4 12.8001V8.0001C14.4 4.46548 11.5346 1.6001 7.99998 1.6001C4.46535 1.6001 1.59998 4.46548 1.59998 8.0001V12.8001C1.59998 13.6838 2.31632 14.4001 3.19998 14.4001H5.19998C5.42089 14.4001 5.59998 14.221 5.59998 14.0001V9.2001C5.59998 8.97918 5.42089 8.8001 5.19998 8.8001H2.39998V8.0001Z" fill="#0F80D7"/>
</svg>
