<svg width="16" height="16" viewBox="0 0 16 16" fill="none" xmlns="http://www.w3.org/2000/svg">
<path d="M6.76877 1.5181L7.5605 1.82969C7.84292 1.94083 8.15697 1.94083 8.4394 1.82969L9.23112 1.5181C10.2002 1.13673 11.2973 1.59114 11.7128 2.54605L12.0523 3.32621C12.1734 3.60451 12.3955 3.82658 12.6738 3.94769L13.454 4.2872C14.4089 4.70276 14.8633 5.79982 14.4819 6.7689L14.1703 7.56062C14.0592 7.84304 14.0592 8.1571 14.1703 8.43952L14.4819 9.23125C14.8633 10.2003 14.4089 11.2974 13.454 11.7129L12.6738 12.0525C12.3955 12.1736 12.1734 12.3956 12.0523 12.6739L11.7128 13.4541C11.2973 14.409 10.2002 14.8634 9.23112 14.482L8.4394 14.1705C8.15697 14.0593 7.84292 14.0593 7.5605 14.1705L6.76877 14.482C5.7997 14.8634 4.70264 14.409 4.28708 13.4541L3.94757 12.6739C3.82646 12.3956 3.60439 12.1736 3.32609 12.0525L2.54593 11.7129C1.59102 11.2974 1.1366 10.2003 1.51798 9.23125L1.82956 8.43952C1.94071 8.1571 1.94071 7.84304 1.82956 7.56062L1.51798 6.7689C1.1366 5.79982 1.59102 4.70276 2.54593 4.2872L3.32609 3.94769C3.60439 3.82658 3.82646 3.60451 3.94757 3.32621L4.28708 2.54605C4.70264 1.59114 5.7997 1.13673 6.76877 1.5181ZM10.0678 6.13433L7.1496 9.41726L5.84957 8.11723C5.69336 7.96102 5.4401 7.96102 5.28389 8.11723C5.12768 8.27344 5.12768 8.5267 5.28389 8.68291L6.88389 10.2829C7.04663 10.4457 7.31279 10.4378 7.46569 10.2658L10.6657 6.66582C10.8125 6.5007 10.7976 6.24787 10.6325 6.10111C10.4674 5.95434 10.2145 5.96921 10.0678 6.13433Z" fill="#2575C6"/>
<path d="M10.0678 6.13426L7.14962 9.41719L5.84959 8.11716C5.69338 7.96095 5.44012 7.96095 5.28391 8.11716C5.1277 8.27337 5.1277 8.52664 5.28391 8.68285L6.88391 10.2828C7.04664 10.4456 7.31281 10.4378 7.46571 10.2657L10.6657 6.66575C10.8125 6.50064 10.7976 6.24781 10.6325 6.10104C10.4674 5.95427 10.2146 5.96915 10.0678 6.13426Z" fill="white"/>
</svg>
